<svg width="159" height="59" viewBox="0 0 159 59" fill="none" xmlns="http://www.w3.org/2000/svg">
<path d="M23.5919 21.0811C23.5783 21.1357 23.5578 21.2314 23.5304 21.3682C23.5031 21.4912 23.4689 21.6348 23.4279 21.7988C23.3869 21.9492 23.3527 22.0928 23.3253 22.2295C23.2843 22.3525 23.2501 22.4414 23.2228 22.4961C23.1681 22.6465 23.0861 22.8105 22.9767 22.9883C22.8537 23.1523 22.7033 23.2344 22.5255 23.2344C22.2384 23.2344 21.9171 23.2139 21.5617 23.1729C21.2062 23.1318 20.8576 23.0703 20.5158 22.9883C20.1603 22.8926 19.8253 22.7764 19.5109 22.6396C19.1828 22.5029 18.8956 22.3389 18.6496 22.1475C18.6359 22.1338 18.5949 22.0928 18.5265 22.0244C18.4445 21.9424 18.3624 21.8604 18.2804 21.7783C18.1984 21.6826 18.1232 21.6006 18.0548 21.5322C17.9728 21.4639 17.9249 21.4297 17.9113 21.4297C17.8839 21.416 17.8361 21.3955 17.7677 21.3682C17.6994 21.3271 17.6242 21.2861 17.5421 21.2451C17.4601 21.2041 17.3917 21.1699 17.3371 21.1426C17.2687 21.1152 17.2208 21.0947 17.1935 21.0811C17.1798 21.0811 17.1593 21.0674 17.132 21.04C17.1046 21.0127 17.091 20.9922 17.091 20.9785C17.0363 20.8965 16.9611 20.7939 16.8654 20.6709C16.7697 20.5342 16.674 20.4043 16.5783 20.2812C16.4689 20.1445 16.38 20.0283 16.3117 19.9326C16.2296 19.8369 16.1818 19.7822 16.1681 19.7686C15.9357 19.3584 15.7921 18.9414 15.7374 18.5176C15.6828 18.0801 15.5802 17.6562 15.4298 17.2461C15.3751 17.1914 15.3205 17.1094 15.2658 17C15.2111 16.877 15.1837 16.7334 15.1837 16.5693C15.1837 16.5146 15.2042 16.3984 15.2453 16.2207C15.2726 16.0293 15.2863 15.9199 15.2863 15.8926C15.3546 15.4688 15.4162 15.0518 15.4708 14.6416C15.5119 14.2314 15.6417 13.8213 15.8605 13.4111C15.8742 13.3564 15.922 13.2676 16.004 13.1445C16.0861 13.0078 16.1818 12.8643 16.2912 12.7139C16.3869 12.5635 16.4826 12.4199 16.5783 12.2832C16.674 12.1328 16.7423 12.0234 16.7833 11.9551C16.879 11.9004 16.9337 11.8525 16.9474 11.8115L17.0705 11.7705C17.0978 11.7705 17.1251 11.7568 17.1525 11.7295C17.1662 11.7158 17.1798 11.709 17.1935 11.709C17.3712 11.5996 17.5285 11.5107 17.6652 11.4424C17.7882 11.3604 17.9044 11.292 18.0138 11.2373C18.1232 11.1826 18.2462 11.1348 18.383 11.0938C18.506 11.0391 18.6564 10.9844 18.8341 10.9297C19.3537 10.7656 19.8253 10.6221 20.2492 10.499C20.673 10.3623 21.1378 10.2939 21.6437 10.2939C21.8214 10.2939 22.0333 10.3008 22.2794 10.3145C22.5119 10.3281 22.6896 10.3828 22.8126 10.4785C22.8537 10.4922 22.9083 10.5332 22.9767 10.6016C23.0314 10.6699 23.0929 10.752 23.1613 10.8477C23.216 10.9297 23.2706 11.0117 23.3253 11.0938C23.3664 11.1621 23.3937 11.2168 23.4074 11.2578C23.4347 11.3262 23.4621 11.4492 23.4894 11.627C23.5031 11.791 23.5167 11.9688 23.5304 12.1602C23.5441 12.3516 23.5578 12.5361 23.5714 12.7139C23.5851 12.8916 23.5919 13.0078 23.5919 13.0625V17.1025V21.0811ZM32.7384 37.4053C32.7384 37.3779 32.7248 37.3232 32.6974 37.2412C32.6837 37.2002 32.6632 37.166 32.6359 37.1387C32.6222 37.1113 32.588 37.0703 32.5333 37.0156C32.4787 36.9609 32.424 36.9131 32.3693 36.8721C32.3009 36.8174 32.2394 36.7695 32.1847 36.7285C32.13 36.6738 32.089 36.6396 32.0617 36.626C31.9796 36.626 31.8498 36.6191 31.672 36.6055C31.4943 36.5781 31.3097 36.5508 31.1183 36.5234C30.9269 36.4824 30.7492 36.4482 30.5851 36.4209C30.421 36.3936 30.3117 36.373 30.257 36.3594C30.0382 36.332 29.8195 36.3184 29.6007 36.3184C29.382 36.3184 29.1701 36.2979 28.965 36.2568C28.7599 36.2158 28.5753 36.1475 28.4113 36.0518C28.2335 35.9561 28.0831 35.7988 27.9601 35.5801V34.4932C27.9601 33.8369 27.9396 33.1943 27.8986 32.5654C27.8576 31.9229 27.7892 31.2734 27.6935 30.6172C27.6251 30.5488 27.591 30.4736 27.591 30.3916C27.5773 30.2959 27.5705 30.1934 27.5705 30.084V29.8789C27.5705 29.8516 27.5773 29.79 27.591 29.6943C27.6046 29.5986 27.6183 29.5029 27.632 29.4072C27.6456 29.2979 27.6593 29.2021 27.673 29.1201C27.6867 29.0244 27.6935 28.9697 27.6935 28.9561V27.2129V25.4492C27.6662 25.3809 27.6388 25.2988 27.6115 25.2031C27.5841 25.1074 27.5705 25.0459 27.5705 25.0186C27.5705 24.9502 27.5841 24.8408 27.6115 24.6904C27.6388 24.5264 27.6662 24.4307 27.6935 24.4033V20.9785V17.5947C27.6935 17.5127 27.6867 17.335 27.673 17.0615C27.6593 16.7881 27.6456 16.501 27.632 16.2002C27.6183 15.8857 27.6046 15.5986 27.591 15.3389C27.5773 15.0654 27.5705 14.8945 27.5705 14.8262C27.5705 14.8125 27.5773 14.7715 27.591 14.7031C27.6046 14.6211 27.6183 14.5391 27.632 14.457C27.6456 14.3613 27.6593 14.2793 27.673 14.2109C27.6867 14.1289 27.6935 14.0742 27.6935 14.0469C27.6935 13.9648 27.7003 13.876 27.714 13.7803C27.7277 13.6709 27.7345 13.5752 27.7345 13.4932C27.7345 13.3564 27.7277 13.2334 27.714 13.124C27.7003 13.001 27.6935 12.8848 27.6935 12.7754C27.6935 12.4199 27.7414 12.085 27.8371 11.7705C27.9328 11.4561 28.1583 11.1758 28.5138 10.9297H30.0519C30.1066 10.9297 30.1955 10.9229 30.3185 10.9092C30.4415 10.8955 30.5714 10.8818 30.7081 10.8682C30.8449 10.8545 30.9816 10.8408 31.1183 10.8271C31.2414 10.7998 31.3302 10.7725 31.3849 10.7451C31.508 10.7314 31.6447 10.7178 31.7951 10.7041C31.9318 10.6768 32.0617 10.6426 32.1847 10.6016C32.3078 10.5605 32.4171 10.499 32.5128 10.417C32.5949 10.335 32.6359 10.2187 32.6359 10.0684C32.6359 9.94531 32.5949 9.84277 32.5128 9.76074C32.4171 9.67871 32.3078 9.61035 32.1847 9.55566C32.0617 9.50098 31.9318 9.4668 31.7951 9.45312C31.6447 9.42578 31.508 9.41211 31.3849 9.41211H29.9083C29.7716 9.41211 29.5665 9.40527 29.2931 9.3916C29.006 9.36426 28.7121 9.34375 28.4113 9.33008C28.1105 9.30273 27.8302 9.28223 27.5705 9.26855C27.3107 9.24121 27.1398 9.22754 27.0578 9.22754C27.0578 9.21387 27.0304 9.20703 26.9757 9.20703C26.9074 9.19336 26.8458 9.18652 26.7912 9.18652C26.7228 9.17285 26.6613 9.16602 26.6066 9.16602C26.5382 9.16602 26.504 9.16602 26.504 9.16602C26.4357 9.16602 26.3195 9.17285 26.1554 9.18652C25.9914 9.18652 25.882 9.2002 25.8273 9.22754C25.7316 9.28223 25.5949 9.31641 25.4171 9.33008C25.2394 9.33008 25.1369 9.33008 25.1095 9.33008C25.0822 9.33008 25.007 9.31641 24.8839 9.28906C24.7472 9.24805 24.672 9.22754 24.6583 9.22754C24.6447 9.21387 24.6037 9.20703 24.5353 9.20703C24.4533 9.19336 24.3644 9.17969 24.2687 9.16602C24.173 9.15234 24.0841 9.14551 24.0021 9.14551C23.9064 9.13184 23.838 9.125 23.797 9.125C23.3732 9.125 22.9767 9.13867 22.6076 9.16602C22.2384 9.17969 21.8214 9.18652 21.3566 9.18652C21.2609 9.18652 21.1515 9.19336 21.0285 9.20703C20.9054 9.20703 20.7892 9.21387 20.6798 9.22754C20.5705 9.24121 20.4816 9.25488 20.4132 9.26855C20.3312 9.26855 20.2765 9.26855 20.2492 9.26855C20.2218 9.26855 20.1398 9.26172 20.0031 9.24805C19.8664 9.23437 19.7843 9.22754 19.757 9.22754C19.7023 9.22754 19.6476 9.2207 19.5929 9.20703C19.5519 9.20703 19.5109 9.20703 19.4699 9.20703C19.4289 9.19336 19.3947 9.18652 19.3673 9.18652C19.3263 9.18652 19.258 9.19336 19.1623 9.20703C19.0665 9.2207 18.9914 9.22754 18.9367 9.22754C18.8273 9.25488 18.6427 9.28906 18.383 9.33008C18.1232 9.35742 17.8566 9.3916 17.5831 9.43262C17.296 9.47363 17.0294 9.50781 16.7833 9.53516C16.5373 9.5625 16.38 9.57617 16.3117 9.57617C15.5871 9.68555 14.965 9.9043 14.4455 10.2324C13.9123 10.5469 13.3654 10.9365 12.8048 11.4014C12.6408 11.5244 12.4699 11.75 12.2921 12.0781C12.1007 12.3926 11.9298 12.7412 11.7794 13.124C11.6154 13.4932 11.4855 13.8623 11.3898 14.2314C11.2941 14.5869 11.2462 14.8672 11.2462 15.0723V15.4619C11.3146 16.2002 11.3761 16.9453 11.4308 17.6973C11.4718 18.4492 11.6085 19.1738 11.841 19.8711C11.8683 19.8711 11.923 19.9326 12.005 20.0557C12.0734 20.165 12.1349 20.2471 12.1896 20.3018C12.381 20.5752 12.5656 20.835 12.7433 21.0811C12.9074 21.3135 13.0851 21.5391 13.2765 21.7578C13.4542 21.9766 13.6593 22.1885 13.8917 22.3936C14.1105 22.585 14.3634 22.7627 14.6505 22.9268C14.7326 22.9814 14.8624 23.0498 15.0402 23.1318C15.2179 23.2139 15.4025 23.3027 15.5939 23.3984C15.7853 23.4805 15.9562 23.5625 16.1066 23.6445C16.2433 23.7266 16.3117 23.7949 16.3117 23.8496V23.9111C15.5871 24.5127 14.9787 25.1895 14.4865 25.9414C13.9943 26.6797 13.4816 27.4248 12.9484 28.1768C12.9484 28.2041 12.9074 28.2588 12.8253 28.3408C12.7296 28.4229 12.6613 28.4639 12.6203 28.4639C12.5929 28.5049 12.5519 28.5732 12.4972 28.6689C12.4289 28.751 12.3673 28.833 12.3126 28.915C12.2443 28.9971 12.1828 29.0723 12.1281 29.1406C12.0734 29.209 12.0392 29.2432 12.0255 29.2432C11.9845 29.3115 11.9093 29.4482 11.7999 29.6533C11.6769 29.8584 11.547 30.084 11.4103 30.3301C11.2736 30.5625 11.1505 30.7812 11.0412 30.9863C10.9181 31.1777 10.8429 31.3008 10.8156 31.3555C10.6242 31.6973 10.4123 31.9775 10.1798 32.1963C9.93373 32.4014 9.68081 32.6475 9.42104 32.9346C9.27065 33.167 9.14077 33.4131 9.03139 33.6729C8.92202 33.9326 8.80581 34.1582 8.68276 34.3496C8.49135 34.6914 8.24526 34.9922 7.94448 35.252C7.6437 35.5117 7.33608 35.7783 7.02163 36.0518C6.89858 36.1611 6.65932 36.2227 6.30385 36.2363C5.93471 36.25 5.56557 36.2773 5.19643 36.3184C4.81362 36.3457 4.47182 36.4277 4.17104 36.5645C3.87026 36.6875 3.71987 36.9268 3.71987 37.2822C3.71987 37.501 3.81557 37.7061 4.00698 37.8975C4.18471 38.0889 4.39663 38.1846 4.64272 38.1846C5.29897 38.1846 5.96206 38.1367 6.63198 38.041C7.28823 37.9453 7.97182 37.8975 8.68276 37.8975H8.96987C9.01088 37.8975 9.11342 37.9043 9.27748 37.918C9.42788 37.9316 9.59877 37.9453 9.79018 37.959C9.98159 37.959 10.1593 37.9658 10.3234 37.9795C10.4874 37.9932 10.59 38 10.631 38C10.7267 38.0137 10.9523 38.0342 11.3078 38.0615C11.6496 38.0889 12.0187 38.1162 12.4152 38.1436C12.8117 38.1709 13.1876 38.1914 13.5431 38.2051C13.8849 38.2324 14.0968 38.2461 14.1789 38.2461C14.2062 38.2461 14.254 38.2529 14.3224 38.2666C14.3908 38.2939 14.4728 38.3213 14.5685 38.3486C14.6505 38.376 14.7326 38.3965 14.8146 38.4102C14.883 38.4375 14.924 38.4512 14.9376 38.4512H15.6349C15.881 38.4512 16.1134 38.376 16.3322 38.2256C16.5373 38.0889 16.6398 37.8496 16.6398 37.5078C16.6398 37.4531 16.6398 37.3779 16.6398 37.2822C16.6261 37.1729 16.6056 37.0703 16.5783 36.9746C16.5509 36.8789 16.5099 36.7969 16.4552 36.7285C16.3869 36.6602 16.2912 36.626 16.1681 36.626H13.379C13.3107 36.626 13.2697 36.5713 13.256 36.4619C13.2423 36.3389 13.2355 36.25 13.2355 36.1953C13.2355 35.8809 13.3517 35.5869 13.5841 35.3135C13.8029 35.04 14.0011 34.7734 14.1789 34.5137C14.3703 34.2129 14.548 33.9053 14.7121 33.5908C14.8761 33.2764 15.0675 32.9619 15.2863 32.6475C15.5187 32.21 15.8058 31.7793 16.1476 31.3555C16.4894 30.9316 16.8039 30.4873 17.091 30.0225C17.1183 29.9814 17.1798 29.8857 17.2755 29.7354C17.3576 29.585 17.4533 29.4277 17.5626 29.2637C17.672 29.0859 17.7746 28.9219 17.8703 28.7715C17.966 28.6074 18.0275 28.5049 18.0548 28.4639C18.1369 28.3545 18.2873 28.1699 18.506 27.9102C18.7248 27.6504 18.9572 27.377 19.2033 27.0898C19.4357 26.7891 19.6613 26.5156 19.88 26.2695C20.0851 26.0098 20.2355 25.8389 20.3312 25.7568C20.3449 25.7021 20.3722 25.6406 20.4132 25.5723C20.4406 25.5039 20.4816 25.4629 20.5363 25.4492C20.8097 25.1074 21.1037 24.8066 21.4181 24.5469C21.7189 24.2871 22.1017 24.1572 22.5665 24.1572H22.8126C22.8263 24.2256 22.8605 24.3145 22.9152 24.4238C22.9699 24.5332 23.0314 24.6494 23.0998 24.7725C23.1544 24.8818 23.216 24.9912 23.2843 25.1006C23.339 25.1963 23.38 25.2646 23.4074 25.3057V25.4082C23.4074 25.6406 23.38 25.8525 23.3253 26.0439C23.257 26.2217 23.2228 26.4336 23.2228 26.6797C23.2228 26.8984 23.2296 27.1104 23.2433 27.3154C23.257 27.5205 23.3117 27.7598 23.4074 28.0332V34.9443C23.4074 35.3545 23.339 35.7168 23.2023 36.0312C23.0519 36.3457 22.7511 36.5029 22.2999 36.5029C21.9445 36.5029 21.6027 36.4824 21.2746 36.4414C20.9464 36.3867 20.6046 36.3594 20.2492 36.3594C20.0578 36.3594 19.8732 36.4346 19.6955 36.585C19.5177 36.7217 19.4289 36.9062 19.4289 37.1387C19.4289 37.3984 19.4767 37.6377 19.5724 37.8564C19.6681 38.0752 19.8732 38.1846 20.1876 38.1846C20.215 38.1846 20.2765 38.1777 20.3722 38.1641C20.4542 38.1504 20.5499 38.1299 20.6593 38.1025C20.755 38.0889 20.8507 38.0684 20.9464 38.041C21.0285 38.0273 21.0831 38.0137 21.1105 38H21.7462C22.0197 38 22.2931 38.0273 22.5665 38.082C22.8263 38.1504 23.1066 38.1846 23.4074 38.1846C23.8449 38.1846 24.2755 38.1504 24.6994 38.082C25.1095 38.0273 25.5333 38 25.9708 38C26.2443 38 26.504 38.0273 26.7501 38.082C26.9962 38.1504 27.256 38.1846 27.5294 38.1846H27.6935C27.7755 38.1846 27.9396 38.1777 28.1857 38.1641C28.4318 38.1504 28.6984 38.1299 28.9855 38.1025C29.2589 38.0889 29.5187 38.0684 29.7648 38.041C30.0109 38.0273 30.1749 38.0137 30.257 38C30.3117 38 30.4689 38.0068 30.7287 38.0205C30.9748 38.0342 31.2072 38.041 31.4259 38.041C31.549 38.041 31.6583 38.041 31.754 38.041C31.8361 38.041 31.8908 38.0273 31.9181 38C31.9455 38 32.0343 37.9932 32.1847 37.9795C32.3214 37.9521 32.424 37.9248 32.4923 37.8975C32.6154 37.8564 32.6906 37.7881 32.7179 37.6924C32.7316 37.583 32.7384 37.4873 32.7384 37.4053Z" fill="#6E2525"/>
<path d="M54.2433 32.6289C54.2172 32.5378 54.1586 32.3034 54.0675 31.9258C53.9893 31.5352 53.9503 30.9232 53.9503 30.0898V25.6758C53.9242 25.6107 53.9047 25.5065 53.8917 25.3633C53.8787 25.2201 53.8722 25.1159 53.8722 25.0508C53.8591 24.9987 53.8461 24.875 53.8331 24.6797C53.8331 24.4844 53.8331 24.2826 53.8331 24.0742C53.8331 23.8529 53.8331 23.651 53.8331 23.4688C53.8331 23.2734 53.8331 23.1497 53.8331 23.0977C53.8331 23.0846 53.8136 23.0456 53.7745 22.9805C53.7485 22.9023 53.7159 22.8177 53.6768 22.7266C53.6508 22.6224 53.6183 22.5247 53.5792 22.4336C53.5401 22.3424 53.5141 22.2708 53.5011 22.2188C53.449 22.0625 53.3123 21.9388 53.0909 21.8477C52.8826 21.7435 52.6482 21.6523 52.3878 21.5742C52.1274 21.4961 51.8669 21.4245 51.6065 21.3594C51.3461 21.2943 51.1443 21.2292 51.0011 21.1641C50.8448 21.099 50.7537 21.0013 50.7276 20.8711C50.7016 20.7409 50.6886 20.6172 50.6886 20.5C50.6886 20.474 50.7146 20.4089 50.7667 20.3047C50.7927 20.2526 50.8253 20.207 50.8643 20.168C50.8904 20.1029 50.975 20.0312 51.1183 19.9531C51.2615 19.862 51.3591 19.8099 51.4112 19.7969C51.4503 19.7969 51.5414 19.7969 51.6847 19.7969C51.8409 19.7969 52.0037 19.7969 52.1729 19.7969C52.3422 19.7969 52.4985 19.7969 52.6417 19.7969C52.7979 19.7839 52.8956 19.7708 52.9347 19.7578C52.9477 19.7578 52.9802 19.7578 53.0323 19.7578C53.0974 19.7448 53.1625 19.7318 53.2276 19.7188C53.2927 19.7057 53.3513 19.6992 53.4034 19.6992C53.4555 19.6862 53.488 19.6797 53.5011 19.6797H54.419C54.4581 19.6797 54.5297 19.6732 54.6339 19.6602C54.7511 19.6471 54.8683 19.6341 54.9854 19.6211C55.1156 19.6081 55.2328 19.5951 55.337 19.582C55.4542 19.556 55.5323 19.5365 55.5714 19.5234C55.5974 19.5234 55.6365 19.5169 55.6886 19.5039C55.7537 19.4909 55.8188 19.4844 55.8839 19.4844C55.962 19.4714 56.0271 19.4583 56.0792 19.4453C56.1443 19.4323 56.1834 19.4258 56.1964 19.4258C56.4438 19.4388 56.7107 19.5104 56.9972 19.6406C57.2836 19.7708 57.518 19.9466 57.7003 20.168V20.832C57.7003 21.8346 57.6417 22.8242 57.5245 23.8008C57.4073 24.7643 57.3487 25.7474 57.3487 26.75C57.3487 27.1667 57.3748 27.5768 57.4268 27.9805C57.4919 28.3841 57.5245 28.8073 57.5245 29.25C57.5245 29.4583 57.4919 29.6732 57.4268 29.8945C57.3748 30.1029 57.3487 30.3242 57.3487 30.5586C57.3487 31.1836 57.3943 31.776 57.4854 32.3359C57.5896 32.8958 57.7719 33.3841 58.0323 33.8008C58.2927 34.2174 58.6443 34.5495 59.087 34.7969C59.5427 35.0443 60.1222 35.168 60.8253 35.168C61.0727 35.168 61.3396 35.1484 61.6261 35.1094C61.9125 35.0703 62.1925 35.0117 62.4659 34.9336C62.7524 34.8555 63.0193 34.7513 63.2667 34.6211C63.5271 34.4909 63.755 34.3346 63.9503 34.1523C64.2758 33.8138 64.5232 33.4883 64.6925 33.1758C64.8748 32.8633 65.005 32.5378 65.0831 32.1992C65.1742 31.8477 65.2263 31.4831 65.2393 31.1055C65.2524 30.7148 65.2589 30.2786 65.2589 29.7969C65.2589 29.6797 65.2654 29.5299 65.2784 29.3477C65.2914 29.1654 65.2979 28.9831 65.2979 28.8008C65.2589 28.4362 65.2263 28.1367 65.2003 27.9023C65.1873 27.6549 65.1742 27.4076 65.1612 27.1602C65.1482 26.8997 65.1352 26.6133 65.1222 26.3008C65.1222 25.9883 65.1222 25.5846 65.1222 25.0898V21.3398C65.1222 21.3008 65.0831 21.2617 65.005 21.2227C64.9399 21.1706 64.8552 21.125 64.7511 21.0859C64.6599 21.0339 64.5623 20.9948 64.4581 20.9688C64.3539 20.9297 64.2693 20.9102 64.2042 20.9102C64.1912 20.8841 64.0805 20.8711 63.8722 20.8711C63.6899 20.8711 63.4946 20.8776 63.2862 20.8906C63.0779 20.9036 62.9607 20.9102 62.9347 20.9102C62.7914 20.8971 62.6287 20.8646 62.4464 20.8125C62.2771 20.7604 62.1078 20.6953 61.9386 20.6172C61.7823 20.5391 61.6456 20.4414 61.5284 20.3242C61.4242 20.207 61.3722 20.0703 61.3722 19.9141V19.7969C61.3982 19.7578 61.4308 19.7188 61.4698 19.6797C61.4959 19.6536 61.5154 19.6276 61.5284 19.6016C61.5544 19.5755 61.574 19.5495 61.587 19.5234C61.6261 19.5234 61.6977 19.5169 61.8018 19.5039C61.919 19.4909 62.0362 19.4844 62.1534 19.4844C62.2706 19.4714 62.3813 19.4583 62.4854 19.4453C62.6026 19.4323 62.6808 19.4258 62.7198 19.4258C62.9412 19.3997 63.156 19.3672 63.3643 19.3281C63.5727 19.276 63.768 19.25 63.9503 19.25C64.2107 19.25 64.4776 19.276 64.7511 19.3281C65.0245 19.3672 65.2979 19.3997 65.5714 19.4258C65.6235 19.4258 65.7276 19.4323 65.8839 19.4453C66.0531 19.4583 66.2289 19.4714 66.4112 19.4844C66.5935 19.4844 66.7563 19.4909 66.8995 19.5039C67.0558 19.5169 67.1534 19.5234 67.1925 19.5234C67.2446 19.5365 67.3292 19.543 67.4464 19.543C67.5766 19.543 67.7003 19.5495 67.8175 19.5625C67.9477 19.5625 68.0649 19.582 68.169 19.6211C68.2732 19.6471 68.3383 19.7057 68.3643 19.7969C68.4034 19.901 68.4425 20.0247 68.4815 20.168C68.5336 20.2982 68.5727 20.4414 68.5987 20.5977C68.6378 20.7539 68.6638 20.9102 68.6768 21.0664C68.7029 21.2096 68.7159 21.3333 68.7159 21.4375C68.7159 23.1302 68.6573 24.8229 68.5401 26.5156C68.4229 28.1953 68.3643 29.8815 68.3643 31.5742V32.9414C68.3643 32.9674 68.3709 33.0391 68.3839 33.1562C68.4099 33.2604 68.436 33.3776 68.462 33.5078C68.488 33.638 68.5076 33.7682 68.5206 33.8984C68.5466 34.0156 68.5662 34.1003 68.5792 34.1523C68.5792 34.2305 68.6052 34.3346 68.6573 34.4648C68.7224 34.582 68.8005 34.6992 68.8917 34.8164C68.9959 34.9206 69.1065 35.0117 69.2237 35.0898C69.3409 35.1549 69.4646 35.181 69.5948 35.168C69.6209 35.168 69.6664 35.1549 69.7315 35.1289C69.8097 35.1029 69.8878 35.0703 69.9659 35.0312C70.0571 34.9922 70.1352 34.9596 70.2003 34.9336C70.2784 34.9076 70.3305 34.8945 70.3565 34.8945C70.3696 34.8815 70.4151 34.875 70.4933 34.875C70.5714 34.862 70.6495 34.8555 70.7276 34.8555C70.8188 34.8424 70.9034 34.8359 70.9815 34.8359C71.0597 34.8229 71.1117 34.8164 71.1378 34.8164C71.1378 35.2201 71.0466 35.5391 70.8643 35.7734C70.6951 35.9948 70.4737 36.1771 70.2003 36.3203C69.9399 36.4505 69.6469 36.5612 69.3214 36.6523C68.9959 36.7435 68.6768 36.8542 68.3643 36.9844C68.1821 37.0625 67.9998 37.1602 67.8175 37.2773C67.6482 37.3945 67.4724 37.5052 67.2901 37.6094C67.1209 37.7135 66.9386 37.8047 66.7433 37.8828C66.561 37.9609 66.3722 38 66.1768 38C65.9034 38 65.7016 37.974 65.5714 37.9219C65.4412 37.8698 65.3435 37.7917 65.2784 37.6875C65.2263 37.5703 65.1938 37.4336 65.1808 37.2773C65.1808 37.1081 65.1612 36.9128 65.1222 36.6914C65.1222 36.6523 65.0961 36.5742 65.044 36.457C65.005 36.3398 64.9854 36.2682 64.9854 36.2422C64.9724 36.1901 64.9529 36.112 64.9268 36.0078C64.9138 35.9036 64.9008 35.7995 64.8878 35.6953C64.8748 35.5781 64.8552 35.474 64.8292 35.3828C64.8162 35.2786 64.8031 35.207 64.7901 35.168H64.6925C64.5883 35.168 64.4581 35.207 64.3018 35.2852C64.1456 35.3503 63.9893 35.4284 63.8331 35.5195C63.6768 35.6107 63.5206 35.7083 63.3643 35.8125C63.2211 35.9167 63.1104 35.9948 63.0323 36.0469C63.0063 36.0599 62.9542 36.112 62.8761 36.2031C62.7979 36.2943 62.7068 36.3984 62.6026 36.5156C62.5115 36.6198 62.4203 36.7174 62.3292 36.8086C62.2511 36.8997 62.2055 36.9583 62.1925 36.9844C62.0492 37.0755 61.8279 37.1992 61.5284 37.3555C61.2419 37.4987 60.9294 37.6419 60.5909 37.7852C60.2524 37.9284 59.9268 38.0521 59.6143 38.1562C59.3018 38.2604 59.0675 38.3125 58.9112 38.3125H58.5401C58.462 38.2995 58.3513 38.2799 58.2081 38.2539C58.0779 38.2409 57.9412 38.2214 57.7979 38.1953C57.6677 38.1823 57.5505 38.1693 57.4464 38.1562C57.3422 38.1432 57.2771 38.1237 57.2511 38.0977C57.225 38.0977 57.1469 38.0651 57.0167 38C56.8865 37.9219 56.8084 37.8633 56.7823 37.8242C56.561 37.707 56.3461 37.6029 56.1378 37.5117C55.9425 37.4076 55.7537 37.2904 55.5714 37.1602C55.4021 37.0299 55.2459 36.8802 55.1026 36.7109C54.9594 36.5417 54.8292 36.3203 54.712 36.0469C54.6729 35.9688 54.6274 35.8646 54.5753 35.7344C54.5232 35.5911 54.4711 35.3893 54.419 35.1289C54.38 34.8685 54.3409 34.543 54.3018 34.1523C54.2628 33.7487 54.2433 33.2409 54.2433 32.6289ZM73.2667 28.6836V28.1953C73.2797 28.1432 73.2992 28.0326 73.3253 27.8633C73.3513 27.694 73.3774 27.5052 73.4034 27.2969C73.4425 27.0885 73.4685 26.8932 73.4815 26.7109C73.5076 26.5156 73.5206 26.3789 73.5206 26.3008C73.5466 26.2357 73.5792 26.151 73.6183 26.0469C73.6573 25.9297 73.6964 25.8581 73.7354 25.832C73.7485 25.793 73.7875 25.7018 73.8526 25.5586C73.9177 25.4023 73.9893 25.2396 74.0675 25.0703C74.1586 24.901 74.2367 24.7448 74.3018 24.6016C74.38 24.4453 74.4386 24.3477 74.4776 24.3086C74.4906 24.2826 74.5102 24.2305 74.5362 24.1523C74.5623 24.0612 74.5883 23.9701 74.6143 23.8789C74.6404 23.7747 74.6664 23.6836 74.6925 23.6055C74.7185 23.5143 74.738 23.4492 74.7511 23.4102C74.7901 23.319 74.8227 23.2539 74.8487 23.2148C74.8748 23.1758 74.9008 23.1432 74.9268 23.1172C74.9529 23.0781 74.9854 23.0456 75.0245 23.0195C75.0766 22.9805 75.1417 22.9154 75.2198 22.8242C75.7797 22.1732 76.3461 21.6198 76.919 21.1641C77.505 20.7083 78.1104 20.3438 78.7354 20.0703C79.3735 19.7839 80.0571 19.5755 80.7862 19.4453C81.5154 19.3151 82.3097 19.25 83.169 19.25C83.2211 19.25 83.2927 19.2565 83.3839 19.2695C83.488 19.2695 83.5857 19.276 83.6768 19.2891C83.768 19.2891 83.8461 19.2956 83.9112 19.3086C83.9893 19.3086 84.0349 19.3086 84.0479 19.3086C84.0479 19.3216 84.0805 19.3411 84.1456 19.3672C84.2237 19.3802 84.3084 19.3997 84.3995 19.4258C84.4906 19.4518 84.5688 19.4779 84.6339 19.5039C84.712 19.5299 84.7641 19.543 84.7901 19.543C85.311 19.7253 85.7732 19.9271 86.1768 20.1484C86.5805 20.3698 86.9581 20.7083 87.3097 21.1641C87.3487 21.2031 87.4008 21.3008 87.4659 21.457C87.531 21.6133 87.5831 21.724 87.6222 21.7891V21.9258C87.6222 22.6029 87.4854 23.1237 87.212 23.4883C86.9386 23.8398 86.4438 24.0156 85.7276 24.0156C85.4672 24.0156 85.2328 23.9375 85.0245 23.7812C84.8162 23.612 84.6209 23.4102 84.4386 23.1758C84.2693 22.9414 84.113 22.7005 83.9698 22.4531C83.8266 22.1927 83.6899 21.9714 83.5597 21.7891C83.5597 21.763 83.5401 21.737 83.5011 21.7109C83.462 21.6719 83.4294 21.6393 83.4034 21.6133C83.3643 21.5742 83.2797 21.5091 83.1495 21.418C83.0323 21.3268 82.8956 21.2292 82.7393 21.125C82.5961 21.0078 82.4594 20.8971 82.3292 20.793C82.199 20.6888 82.1013 20.6107 82.0362 20.5586C82.0102 20.5586 81.9125 20.5521 81.7433 20.5391C81.587 20.513 81.4633 20.5 81.3722 20.5C81.3331 20.5 81.281 20.5065 81.2159 20.5195C81.1508 20.5195 81.0792 20.526 81.0011 20.5391C80.936 20.5391 80.8774 20.5456 80.8253 20.5586C80.7732 20.5586 80.7406 20.5586 80.7276 20.5586C80.4412 20.6237 80.1742 20.7734 79.9268 21.0078C79.6925 21.2422 79.4646 21.444 79.2433 21.6133C79.1391 21.6914 79.0479 21.7565 78.9698 21.8086C78.8917 21.8607 78.8201 21.9128 78.755 21.9648C78.6899 22.0039 78.6248 22.056 78.5597 22.1211C78.4946 22.1862 78.4294 22.2773 78.3643 22.3945C78.2081 22.6159 78.0453 22.9023 77.8761 23.2539C77.7068 23.5924 77.5571 23.9505 77.4268 24.3281C77.2966 24.7057 77.186 25.0833 77.0948 25.4609C77.0167 25.8255 76.9776 26.1445 76.9776 26.418V26.6133C76.9906 26.7826 77.0167 27.0625 77.0558 27.4531C77.1078 27.8307 77.1599 28.2279 77.212 28.6445C77.2641 29.0482 77.3097 29.4258 77.3487 29.7773C77.4008 30.1159 77.4334 30.3307 77.4464 30.4219C77.5115 31.0208 77.6677 31.6393 77.9151 32.2773C78.1625 32.9023 78.4555 33.4362 78.794 33.8789C78.9763 34.1133 79.1781 34.3411 79.3995 34.5625C79.6339 34.7839 79.8813 34.9792 80.1417 35.1484C80.4151 35.3047 80.6886 35.4349 80.962 35.5391C81.2485 35.6432 81.5414 35.6953 81.8409 35.6953C82.1794 35.6953 82.5505 35.6432 82.9542 35.5391C83.3578 35.4349 83.7224 35.3307 84.0479 35.2266C84.1 35.2135 84.1912 35.1875 84.3214 35.1484C84.4516 35.1094 84.5753 35.0703 84.6925 35.0312C84.8227 34.9792 84.9399 34.9336 85.044 34.8945C85.1482 34.8555 85.2068 34.8294 85.2198 34.8164C85.3761 34.7253 85.5258 34.6146 85.669 34.4844C85.8123 34.3411 85.949 34.2044 86.0792 34.0742C86.2224 33.944 86.3722 33.8333 86.5284 33.7422C86.6977 33.651 86.88 33.6055 87.0753 33.6055C87.1794 33.6055 87.2446 33.638 87.2706 33.7031C87.2966 33.7552 87.3097 33.8138 87.3097 33.8789C87.3097 34.1654 87.2185 34.4388 87.0362 34.6992C86.8669 34.9596 86.7237 35.181 86.6065 35.3633C85.8383 36.4049 84.9724 37.1471 84.0089 37.5898C83.0584 38.0195 81.9451 38.2344 80.669 38.2344H79.712C79.686 38.2344 79.6274 38.2214 79.5362 38.1953C79.4451 38.1823 79.3409 38.1562 79.2237 38.1172C79.1196 38.0911 79.0089 38.0586 78.8917 38.0195C78.7875 37.9935 78.7029 37.9674 78.6378 37.9414C78.5987 37.9154 78.5401 37.8893 78.462 37.8633C78.3969 37.8372 78.3643 37.8177 78.3643 37.8047C78.3383 37.7656 78.2537 37.7005 78.1104 37.6094C77.9802 37.5052 77.9086 37.4531 77.8956 37.4531C77.6873 37.388 77.4138 37.3229 77.0753 37.2578C76.7367 37.1927 76.4568 37.056 76.2354 36.8477C75.6495 36.3659 75.1612 35.8125 74.7706 35.1875C74.393 34.5495 74.087 33.8724 73.8526 33.1562C73.6313 32.4401 73.475 31.7044 73.3839 30.9492C73.3058 30.181 73.2667 29.4258 73.2667 28.6836ZM97.7979 28.6445C97.7589 28.6445 97.6612 28.6836 97.505 28.7617C97.3617 28.8398 97.2055 28.931 97.0362 29.0352C96.88 29.1263 96.7237 29.224 96.5675 29.3281C96.4242 29.4193 96.3266 29.4844 96.2745 29.5234C96.2485 29.5625 96.1703 29.6471 96.0401 29.7773C95.9099 29.9076 95.7667 30.0508 95.6104 30.207C95.4672 30.3503 95.3305 30.487 95.2003 30.6172C95.0701 30.7474 94.9919 30.832 94.9659 30.8711C94.9138 30.8711 94.8487 30.8971 94.7706 30.9492L94.6534 31.0078C94.5883 31.0729 94.4972 31.2292 94.38 31.4766C94.2628 31.7109 94.1651 31.9583 94.087 32.2188C93.9959 32.4792 93.9438 32.6745 93.9308 32.8047C93.9177 32.9349 93.9112 33.1107 93.9112 33.332C93.9112 33.6576 93.9503 33.957 94.0284 34.2305C94.1065 34.5039 94.3149 34.7253 94.6534 34.8945C94.7055 34.9206 94.7771 34.9531 94.8683 34.9922C94.9724 35.0182 95.0701 35.0443 95.1612 35.0703C95.2654 35.0964 95.3565 35.1224 95.4347 35.1484C95.5128 35.1615 95.5714 35.168 95.6104 35.168C95.6755 35.168 95.7602 35.168 95.8643 35.168C95.9685 35.1549 96.0792 35.1419 96.1964 35.1289C96.3136 35.1159 96.4177 35.1029 96.5089 35.0898C96.613 35.0768 96.6912 35.0638 96.7433 35.0508C97.225 34.9466 97.6091 34.7904 97.8956 34.582C98.1821 34.3607 98.3839 34.0156 98.5011 33.5469C98.5271 33.4297 98.5662 33.2799 98.6183 33.0977C98.6703 32.9023 98.7159 32.7135 98.755 32.5312C98.8071 32.3359 98.8526 32.1667 98.8917 32.0234C98.9308 31.8672 98.9503 31.776 98.9503 31.75C98.9763 31.75 98.9893 31.724 98.9893 31.6719C99.0024 31.6068 99.0089 31.5677 99.0089 31.5547C99.0089 31.5156 99.0024 31.4701 98.9893 31.418C98.9893 31.3529 98.9763 31.3073 98.9503 31.2812C98.9242 31.1901 98.9047 31.1055 98.8917 31.0273C98.8787 30.9622 98.8656 30.8971 98.8526 30.832C98.8526 30.7669 98.8526 30.7214 98.8526 30.6953V29.9531C98.8266 29.8359 98.781 29.7057 98.7159 29.5625C98.6508 29.4062 98.5727 29.263 98.4815 29.1328C98.4034 28.9896 98.3058 28.8724 98.1886 28.7812C98.0714 28.6901 97.9412 28.6445 97.7979 28.6445ZM90.3565 34.2891C90.3565 33.9635 90.3956 33.5859 90.4737 33.1562C90.5518 32.7135 90.7081 32.349 90.9425 32.0625C90.9555 32.0495 91.0141 31.9844 91.1183 31.8672C91.2354 31.75 91.3656 31.6198 91.5089 31.4766C91.6521 31.3203 91.7953 31.1706 91.9386 31.0273C92.0948 30.8841 92.212 30.7734 92.2901 30.6953C92.7068 30.3177 93.1495 29.9727 93.6183 29.6602C94.087 29.3346 94.5688 29.0482 95.0636 28.8008C95.1287 28.7747 95.2393 28.7487 95.3956 28.7227C95.5649 28.6966 95.669 28.6706 95.7081 28.6445C95.7472 28.6315 95.8188 28.599 95.9229 28.5469C96.0401 28.4818 96.1638 28.4167 96.294 28.3516C96.4242 28.2734 96.5414 28.2083 96.6456 28.1562C96.7628 28.0911 96.8344 28.0586 96.8604 28.0586C97.0818 27.9544 97.2836 27.8698 97.4659 27.8047C97.6612 27.7396 97.8435 27.668 98.0128 27.5898C98.1821 27.5117 98.3448 27.4206 98.5011 27.3164C98.6573 27.1992 98.8071 27.043 98.9503 26.8477C98.9763 26.7956 98.9959 26.7044 99.0089 26.5742C99.0349 26.431 99.0544 26.2812 99.0675 26.125C99.0805 25.9557 99.087 25.7995 99.087 25.6562C99.1 25.5 99.1065 25.3893 99.1065 25.3242C99.1065 25.0117 99.1 24.6992 99.087 24.3867C99.074 24.0612 99.0219 23.7552 98.9308 23.4688C98.8526 23.1693 98.7224 22.9023 98.5401 22.668C98.3709 22.4206 98.1235 22.2253 97.7979 22.082C97.7719 22.069 97.7133 22.0495 97.6222 22.0234C97.531 21.9974 97.4334 21.9714 97.3292 21.9453C97.225 21.9062 97.1274 21.8737 97.0362 21.8477C96.9451 21.8216 96.8865 21.8086 96.8604 21.8086C96.8604 21.7956 96.8344 21.776 96.7823 21.75C96.7302 21.724 96.6716 21.6979 96.6065 21.6719C96.5414 21.6328 96.4763 21.6068 96.4112 21.5938C96.3461 21.5677 96.3005 21.5482 96.2745 21.5352H96.1768C96.0076 21.5352 95.8774 21.5547 95.7862 21.5938C95.6951 21.6328 95.5779 21.7044 95.4347 21.8086C95.3826 21.8346 95.3175 21.8672 95.2393 21.9062C95.1612 21.9453 95.0831 21.9909 95.005 22.043C94.9268 22.0951 94.8552 22.1406 94.7901 22.1797C94.738 22.2057 94.7055 22.2188 94.6925 22.2188C94.6664 22.2448 94.6339 22.2969 94.5948 22.375C94.5558 22.4401 94.5167 22.5182 94.4776 22.6094C94.4516 22.6875 94.4255 22.7656 94.3995 22.8438C94.3735 22.9089 94.3604 22.9479 94.3604 22.9609C94.3474 22.987 94.3344 23.0391 94.3214 23.1172C94.3084 23.1823 94.2953 23.2604 94.2823 23.3516C94.2693 23.4297 94.2563 23.5078 94.2433 23.5859C94.2302 23.651 94.2237 23.6901 94.2237 23.7031C94.2237 23.7422 94.1977 23.8268 94.1456 23.957C94.0935 24.0742 94.0479 24.1458 94.0089 24.1719C93.9568 24.4583 93.9177 24.6992 93.8917 24.8945C93.8787 25.0898 93.8331 25.2461 93.755 25.3633C93.6768 25.4805 93.5531 25.5651 93.3839 25.6172C93.2276 25.6562 92.9867 25.6758 92.6612 25.6758C92.3617 25.6758 92.0688 25.6693 91.7823 25.6562C91.5089 25.6432 91.2615 25.5977 91.0401 25.5195C90.8318 25.4284 90.6625 25.2917 90.5323 25.1094C90.4021 24.9141 90.337 24.6471 90.337 24.3086C90.337 24.1654 90.3435 24.0091 90.3565 23.8398C90.3696 23.6706 90.4151 23.5273 90.4933 23.4102C90.5063 23.3971 90.5388 23.3646 90.5909 23.3125C90.643 23.2474 90.7016 23.1823 90.7667 23.1172C90.8318 23.0521 90.8904 22.9935 90.9425 22.9414C91.0076 22.8893 91.0531 22.8503 91.0792 22.8242C92.199 21.9909 93.3643 21.3138 94.5753 20.793C95.7992 20.2591 97.1078 19.9922 98.5011 19.9922C98.8266 19.9922 99.1521 20.0117 99.4776 20.0508C99.8162 20.0898 100.142 20.168 100.454 20.2852C100.767 20.3893 101.053 20.5391 101.314 20.7344C101.574 20.9297 101.789 21.1771 101.958 21.4766C101.997 21.5547 102.043 21.6589 102.095 21.7891C102.16 21.9193 102.225 22.0495 102.29 22.1797C102.355 22.3099 102.407 22.4206 102.446 22.5117C102.498 22.6029 102.525 22.6549 102.525 22.668C102.538 22.707 102.551 22.8047 102.564 22.9609C102.577 23.1042 102.59 23.2604 102.603 23.4297C102.616 23.5859 102.629 23.7422 102.642 23.8984C102.655 24.0417 102.661 24.1328 102.661 24.1719C102.661 24.2109 102.687 24.2695 102.739 24.3477C102.765 24.3867 102.798 24.4193 102.837 24.4453C102.85 24.4453 102.857 24.4779 102.857 24.543V24.5625C102.844 24.5755 102.837 24.582 102.837 24.582C102.746 24.8815 102.687 25.181 102.661 25.4805C102.635 25.7799 102.59 26.0924 102.525 26.418C102.525 26.431 102.505 26.5221 102.466 26.6914C102.44 26.8607 102.427 26.9714 102.427 27.0234C102.401 27.0365 102.388 27.1602 102.388 27.3945C102.388 27.6029 102.394 27.8177 102.407 28.0391C102.42 28.2604 102.427 28.4036 102.427 28.4688C102.427 28.4948 102.414 28.5469 102.388 28.625C102.375 28.6901 102.355 28.7682 102.329 28.8594C102.316 28.9375 102.297 29.0156 102.271 29.0938C102.258 29.1589 102.251 29.1979 102.251 29.2109C102.251 29.25 102.238 29.4323 102.212 29.7578C102.186 30.0833 102.153 30.4609 102.114 30.8906C102.088 31.3073 102.056 31.737 102.017 32.1797C101.991 32.6094 101.971 32.9609 101.958 33.2344V33.3125V33.4297C101.958 33.4818 101.965 33.5859 101.978 33.7422C101.991 33.8854 102.004 34.0417 102.017 34.2109C102.03 34.3802 102.043 34.543 102.056 34.6992C102.069 34.8555 102.082 34.9727 102.095 35.0508C102.277 35.2591 102.505 35.4089 102.778 35.5C103.052 35.5911 103.306 35.6367 103.54 35.6367C103.801 35.6367 104.028 35.6042 104.224 35.5391C104.432 35.474 104.647 35.4414 104.868 35.4414C104.894 35.4414 104.972 35.4479 105.103 35.4609C105.246 35.4609 105.337 35.4609 105.376 35.4609C105.506 35.526 105.584 35.6042 105.61 35.6953C105.65 35.7865 105.669 35.9036 105.669 36.0469C105.669 36.0599 105.669 36.0859 105.669 36.125C105.669 36.1641 105.656 36.1836 105.63 36.1836L104.282 37.5703L104.126 37.6484C103.996 37.7005 103.911 37.7266 103.872 37.7266C103.833 37.7266 103.735 37.7331 103.579 37.7461C103.423 37.7591 103.254 37.7721 103.071 37.7852C102.889 37.7982 102.713 37.8112 102.544 37.8242C102.388 37.8372 102.29 37.8503 102.251 37.8633C102.225 37.8633 102.16 37.8763 102.056 37.9023C101.952 37.9154 101.841 37.9349 101.724 37.9609C101.607 37.974 101.496 37.987 101.392 38C101.301 38.013 101.242 38.013 101.216 38C101.19 38 101.138 37.9935 101.06 37.9805C100.995 37.9544 100.916 37.9284 100.825 37.9023C100.734 37.8633 100.643 37.8307 100.552 37.8047C100.461 37.7786 100.389 37.7526 100.337 37.7266C100.129 37.6484 99.9203 37.5443 99.712 37.4141C99.5037 37.2839 99.3474 37.1276 99.2433 36.9453C99.1651 36.8021 99.1 36.6458 99.0479 36.4766C99.0089 36.2943 98.9568 36.1315 98.8917 35.9883C98.8396 35.832 98.7615 35.7018 98.6573 35.5977C98.5531 35.4935 98.3904 35.4414 98.169 35.4414C98.156 35.4414 98.143 35.4479 98.13 35.4609C98.13 35.4609 98.1235 35.4609 98.1104 35.4609H98.0714C97.7459 35.6693 97.4854 35.9102 97.2901 36.1836C97.1078 36.457 96.88 36.7109 96.6065 36.9453C96.3852 37.1276 96.1573 37.2839 95.9229 37.4141C95.7016 37.5312 95.4737 37.681 95.2393 37.8633C95.1742 37.8893 95.0571 37.9154 94.8878 37.9414C94.7315 37.9674 94.5558 37.9935 94.3604 38.0195C94.1781 38.0586 93.9959 38.0846 93.8136 38.0977C93.6443 38.1237 93.5206 38.1367 93.4425 38.1367C93.4034 38.1367 93.3383 38.1302 93.2472 38.1172C93.156 38.1172 93.0518 38.1107 92.9347 38.0977C92.8305 38.0846 92.7263 38.0651 92.6222 38.0391C92.531 38.026 92.4659 38.013 92.4268 38C92.4008 38 92.3552 37.9805 92.2901 37.9414C92.238 37.8893 92.1794 37.8372 92.1143 37.7852C92.0492 37.7331 91.9841 37.6875 91.919 37.6484C91.8669 37.5964 91.8344 37.5703 91.8214 37.5703C91.2485 37.1797 90.8578 36.6979 90.6495 36.125C90.4542 35.5521 90.3565 34.9401 90.3565 34.2891ZM107.837 32.1602C108.006 32.1081 108.169 32.1862 108.325 32.3945C108.495 32.6029 108.644 32.8568 108.775 33.1562C108.905 33.4427 109.015 33.7227 109.107 33.9961C109.198 34.2695 109.269 34.4323 109.321 34.4844C109.334 34.5104 109.373 34.569 109.439 34.6602C109.517 34.7383 109.595 34.8294 109.673 34.9336C109.751 35.0247 109.829 35.1159 109.907 35.207C109.998 35.2982 110.064 35.3633 110.103 35.4023C110.103 35.4284 110.135 35.4805 110.2 35.5586C110.278 35.6367 110.337 35.6823 110.376 35.6953C110.389 35.7604 110.435 35.8776 110.513 36.0469C110.604 36.2031 110.656 36.2943 110.669 36.3203C110.773 36.4766 110.929 36.6133 111.138 36.7305C111.359 36.8346 111.594 36.9193 111.841 36.9844C112.088 37.0495 112.336 37.1016 112.583 37.1406C112.83 37.1667 113.039 37.1797 113.208 37.1797H113.345C113.788 37.0625 114.191 36.8737 114.556 36.6133C114.933 36.3529 115.252 36.0469 115.513 35.6953C115.786 35.3438 115.995 34.9531 116.138 34.5234C116.281 34.0938 116.353 33.6445 116.353 33.1758C116.353 32.9935 116.34 32.7656 116.314 32.4922C116.288 32.2188 116.19 31.9909 116.021 31.8086C115.969 31.7565 115.89 31.6784 115.786 31.5742C115.695 31.4701 115.591 31.3659 115.474 31.2617C115.37 31.1576 115.272 31.0599 115.181 30.9688C115.103 30.8776 115.044 30.8255 115.005 30.8125C114.823 30.6693 114.634 30.5586 114.439 30.4805C114.243 30.3893 114.041 30.3242 113.833 30.2852C113.638 30.2331 113.436 30.194 113.228 30.168C113.032 30.1289 112.837 30.0898 112.642 30.0508C112.238 29.9596 111.769 29.8294 111.235 29.6602C110.715 29.4779 110.2 29.2565 109.692 28.9961C109.198 28.7357 108.748 28.4362 108.345 28.0977C107.941 27.7461 107.661 27.3424 107.505 26.8867C107.466 26.8216 107.427 26.7109 107.388 26.5547C107.349 26.3854 107.31 26.2031 107.271 26.0078C107.245 25.8125 107.225 25.6172 107.212 25.4219C107.199 25.2266 107.192 25.0508 107.192 24.8945C107.192 24.6862 107.205 24.5625 107.232 24.5234C107.232 24.5104 107.232 24.4714 107.232 24.4062C107.245 24.3411 107.251 24.276 107.251 24.2109C107.264 24.1328 107.271 24.0612 107.271 23.9961C107.284 23.931 107.29 23.8919 107.29 23.8789C107.29 23.8529 107.297 23.7943 107.31 23.7031C107.336 23.599 107.362 23.4948 107.388 23.3906C107.427 23.2865 107.453 23.1888 107.466 23.0977C107.492 22.9935 107.505 22.9284 107.505 22.9023C107.505 22.8893 107.525 22.8503 107.564 22.7852C107.616 22.7201 107.668 22.6549 107.72 22.5898C107.785 22.5247 107.837 22.4661 107.876 22.4141C107.928 22.349 107.961 22.3099 107.974 22.2969C108.013 22.2578 108.058 22.1927 108.11 22.1016C108.176 22.0104 108.241 21.9193 108.306 21.8281C108.371 21.724 108.429 21.6328 108.482 21.5547C108.547 21.4766 108.592 21.418 108.618 21.3789C108.696 21.2487 108.761 21.1445 108.814 21.0664C108.879 20.9883 108.95 20.9232 109.028 20.8711C109.107 20.819 109.191 20.7669 109.282 20.7148C109.373 20.6628 109.491 20.5911 109.634 20.5C109.647 20.4609 109.692 20.4089 109.771 20.3438C109.862 20.2656 109.914 20.2266 109.927 20.2266C109.953 20.2005 109.998 20.168 110.064 20.1289C110.129 20.0768 110.174 20.0508 110.2 20.0508C110.291 20.0247 110.409 19.9922 110.552 19.9531C110.708 19.901 110.858 19.849 111.001 19.7969C111.144 19.7448 111.268 19.7057 111.372 19.6797C111.489 19.6406 111.548 19.6211 111.548 19.6211C111.665 19.5951 111.782 19.569 111.9 19.543C112.004 19.5169 112.095 19.4974 112.173 19.4844C112.264 19.4583 112.342 19.4453 112.407 19.4453C112.824 19.4453 113.286 19.4844 113.794 19.5625C114.302 19.6276 114.751 19.6927 115.142 19.7578C115.155 19.7578 115.194 19.7773 115.259 19.8164C115.337 19.8424 115.415 19.875 115.493 19.9141C115.584 19.9401 115.669 19.9727 115.747 20.0117C115.825 20.0378 115.877 20.0508 115.903 20.0508C116.047 20.0508 116.17 20.0182 116.275 19.9531C116.379 19.888 116.476 19.8164 116.567 19.7383C116.672 19.6602 116.769 19.5885 116.86 19.5234C116.965 19.4583 117.088 19.4258 117.232 19.4258C117.336 19.4258 117.42 19.4714 117.485 19.5625C117.551 19.6536 117.596 19.7643 117.622 19.8945C117.661 20.0117 117.681 20.1354 117.681 20.2656C117.694 20.3828 117.7 20.474 117.7 20.5391C117.7 20.7995 117.648 21.0469 117.544 21.2812C117.453 21.5156 117.394 21.75 117.368 21.9844C117.342 22.1536 117.329 22.375 117.329 22.6484C117.329 22.9219 117.31 23.1888 117.271 23.4492C117.232 23.6966 117.147 23.918 117.017 24.1133C116.886 24.2956 116.685 24.3867 116.411 24.3867C116.229 24.3867 116.086 24.3086 115.982 24.1523C115.89 23.9831 115.812 23.7943 115.747 23.5859C115.682 23.3646 115.617 23.1432 115.552 22.9219C115.487 22.7005 115.402 22.5312 115.298 22.4141C115.142 22.2188 114.959 22.0169 114.751 21.8086C114.556 21.6003 114.341 21.4115 114.107 21.2422C113.872 21.0599 113.618 20.9167 113.345 20.8125C113.084 20.6953 112.811 20.6367 112.525 20.6367H112.427C111.997 20.7409 111.607 20.8711 111.255 21.0273C110.916 21.1836 110.623 21.3854 110.376 21.6328C110.142 21.8802 109.959 22.1797 109.829 22.5312C109.699 22.8828 109.634 23.306 109.634 23.8008V24.0156C109.634 24.0807 109.653 24.1719 109.692 24.2891C109.732 24.3932 109.771 24.5104 109.81 24.6406C109.862 24.7708 109.914 24.8945 109.966 25.0117C110.018 25.1159 110.064 25.1875 110.103 25.2266C110.103 25.2656 110.109 25.3047 110.122 25.3438C110.148 25.3698 110.174 25.3958 110.2 25.4219C110.422 25.6042 110.591 25.7344 110.708 25.8125C110.838 25.8906 111.04 25.9557 111.314 26.0078C111.327 26.0208 111.379 26.0339 111.47 26.0469C111.561 26.0599 111.665 26.0729 111.782 26.0859C111.9 26.0859 112.01 26.0924 112.114 26.1055C112.219 26.1185 112.29 26.1315 112.329 26.1445C112.342 26.1576 112.388 26.1836 112.466 26.2227C112.557 26.2487 112.648 26.2812 112.739 26.3203C112.844 26.3464 112.935 26.3724 113.013 26.3984C113.104 26.4245 113.156 26.4375 113.169 26.4375C113.208 26.4505 113.299 26.4766 113.442 26.5156C113.599 26.5417 113.761 26.5742 113.931 26.6133C114.1 26.6523 114.256 26.6849 114.4 26.7109C114.556 26.737 114.653 26.75 114.692 26.75C114.745 26.776 114.823 26.8021 114.927 26.8281C115.044 26.8411 115.116 26.8607 115.142 26.8867C115.155 26.8997 115.181 26.9258 115.22 26.9648C115.272 26.9909 115.324 27.0234 115.376 27.0625L115.571 27.2188C115.597 27.2318 115.656 27.2513 115.747 27.2773C115.838 27.3034 115.936 27.3359 116.04 27.375C116.144 27.401 116.235 27.4336 116.314 27.4727C116.405 27.4987 116.463 27.5182 116.489 27.5312C116.502 27.5312 116.528 27.5508 116.567 27.5898C116.62 27.6289 116.672 27.6745 116.724 27.7266C116.776 27.7656 116.821 27.8112 116.86 27.8633C116.913 27.9023 116.945 27.9219 116.958 27.9219C116.971 27.9479 117.004 27.9805 117.056 28.0195C117.108 28.0456 117.166 28.0781 117.232 28.1172C117.297 28.1432 117.355 28.1693 117.407 28.1953C117.472 28.2214 117.511 28.2344 117.525 28.2344C118.058 28.625 118.442 29.1003 118.677 29.6602C118.924 30.207 119.048 30.8125 119.048 31.4766C119.048 31.4896 119.041 31.5156 119.028 31.5547C119.028 31.5807 119.028 31.6133 119.028 31.6523V31.8086C119.028 31.9258 119.022 32.1016 119.009 32.3359C118.996 32.5703 118.976 32.8112 118.95 33.0586C118.937 33.293 118.924 33.5078 118.911 33.7031C118.898 33.8984 118.892 34.0156 118.892 34.0547C118.853 34.3021 118.755 34.582 118.599 34.8945C118.455 35.194 118.273 35.4935 118.052 35.793C117.844 36.0794 117.622 36.3464 117.388 36.5938C117.166 36.8411 116.958 37.0365 116.763 37.1797C116.672 37.2578 116.522 37.3424 116.314 37.4336C116.105 37.5247 115.877 37.6159 115.63 37.707C115.383 37.7852 115.142 37.8633 114.907 37.9414C114.673 38.0065 114.491 38.0586 114.36 38.0977H112.778C112.661 38.0977 112.511 38.0911 112.329 38.0781C112.147 38.0651 111.965 38.0456 111.782 38.0195C111.613 38.0065 111.463 37.9935 111.333 37.9805C111.203 37.9674 111.131 37.9609 111.118 37.9609C111.079 37.9609 111.008 37.9544 110.903 37.9414C110.812 37.9284 110.715 37.9154 110.61 37.9023C110.519 37.8763 110.435 37.8568 110.357 37.8438C110.278 37.8177 110.226 37.8047 110.2 37.8047C110.174 37.8047 110.103 37.7917 109.985 37.7656C109.881 37.7266 109.797 37.694 109.732 37.668C109.588 37.6029 109.439 37.5573 109.282 37.5312C109.139 37.4922 108.989 37.4531 108.833 37.4141C108.677 37.362 108.527 37.3034 108.384 37.2383C108.241 37.1602 108.104 37.043 107.974 36.8867C107.948 36.8477 107.915 36.7826 107.876 36.6914C107.837 36.6003 107.798 36.5091 107.759 36.418C107.72 36.3138 107.681 36.2227 107.642 36.1445C107.616 36.0664 107.603 36.0078 107.603 35.9688L107.505 32.4531C107.505 32.401 107.544 32.3424 107.622 32.2773C107.713 32.1992 107.785 32.1602 107.837 32.1602Z" fill="#6E2525"/>
<path d="M20.8474 10.5586C20.8474 10.3503 20.945 10.2135 21.1403 10.1484C21.3487 10.0703 21.5635 10.0312 21.7849 10.0312H23.3083C23.4385 10.0182 23.6859 10.0052 24.0505 9.99219C24.4281 9.97917 24.8187 9.96615 25.2224 9.95312C25.639 9.92708 26.0296 9.90755 26.3942 9.89453C26.7718 9.88151 27.0388 9.86849 27.195 9.85547C27.221 9.88151 27.3122 9.91406 27.4684 9.95312C27.6247 9.97917 27.7354 10.0052 27.8005 10.0312H27.8981C28.0674 10.0312 28.2171 9.98568 28.3474 9.89453C28.4906 9.80339 28.6338 9.75781 28.777 9.75781C28.8031 9.73177 28.8812 9.71875 29.0114 9.71875C29.1156 9.71875 29.2263 9.72526 29.3434 9.73828C29.4606 9.7513 29.5322 9.75781 29.5583 9.75781C29.6625 9.73177 29.8252 9.70573 30.0466 9.67969C30.2809 9.64062 30.5153 9.60156 30.7497 9.5625C30.9971 9.52344 31.2184 9.49089 31.4138 9.46484C31.6221 9.4388 31.7588 9.41927 31.8239 9.40625C31.8369 9.40625 31.876 9.39323 31.9411 9.36719C32.0192 9.34115 32.0974 9.3151 32.1755 9.28906C32.2666 9.25 32.3447 9.21745 32.4099 9.19141C32.488 9.15234 32.5401 9.1263 32.5661 9.11328C32.6182 9.08724 32.7224 9.05469 32.8786 9.01562C33.0349 8.96354 33.1195 8.9375 33.1325 8.9375H34.1286H35.1052C35.2744 9.0026 35.3721 9.10677 35.3981 9.25C35.4242 9.39323 35.4372 9.52995 35.4372 9.66016C35.4372 9.71224 35.4307 9.78385 35.4177 9.875C35.4046 9.95312 35.3981 10.0052 35.3981 10.0312C35.3981 10.0573 35.3721 10.1029 35.32 10.168C35.2679 10.2201 35.2093 10.2786 35.1442 10.3438C35.0791 10.3958 35.014 10.4479 34.9489 10.5C34.8968 10.5391 34.8578 10.5586 34.8317 10.5586C34.7276 10.5977 34.5583 10.6367 34.3239 10.6758C34.0895 10.7148 33.8421 10.7539 33.5817 10.793C33.3343 10.819 33.0934 10.8451 32.8591 10.8711C32.6377 10.8971 32.4815 10.9102 32.3903 10.9102C32.3773 10.9102 32.3447 10.9167 32.2927 10.9297C32.2406 10.9297 32.1755 10.9297 32.0974 10.9297C31.9411 10.9297 31.7653 10.9297 31.57 10.9297C31.3877 10.9167 31.2705 10.9102 31.2184 10.9102C31.0362 10.9232 30.8343 10.9557 30.613 11.0078C30.4046 11.0469 30.2419 11.1576 30.1247 11.3398C30.1247 11.4049 30.1117 11.5156 30.0856 11.6719C30.0596 11.8281 30.0335 11.9974 30.0075 12.1797C29.9815 12.349 29.9489 12.5182 29.9099 12.6875C29.8838 12.8438 29.8708 12.9479 29.8708 13C29.8708 13.026 29.8513 13.1042 29.8122 13.2344C29.7731 13.3516 29.7536 13.4167 29.7536 13.4297C29.7406 13.4688 29.7276 13.5143 29.7145 13.5664C29.7015 13.6185 29.695 13.6901 29.695 13.7812C29.695 14.0807 29.721 14.3672 29.7731 14.6406C29.8382 14.9141 29.8708 15.2201 29.8708 15.5586C29.8708 16.0404 29.8513 16.5091 29.8122 16.9648C29.7731 17.4076 29.7536 17.8633 29.7536 18.332C29.7536 18.3581 29.7601 18.4036 29.7731 18.4688C29.7862 18.5208 29.7992 18.5859 29.8122 18.6641C29.8252 18.7422 29.8382 18.8138 29.8513 18.8789C29.8643 18.944 29.8708 18.9896 29.8708 19.0156C29.8708 19.0417 29.8708 19.1198 29.8708 19.25C29.8838 19.3672 29.8903 19.5039 29.8903 19.6602C29.8903 19.8164 29.8903 19.9857 29.8903 20.168C29.8903 20.3503 29.8838 20.526 29.8708 20.6953C29.8708 20.8646 29.8708 21.0143 29.8708 21.1445C29.8708 21.2747 29.8708 21.3659 29.8708 21.418C29.8708 21.418 29.8773 21.4505 29.8903 21.5156C29.9033 21.5677 29.9164 21.6263 29.9294 21.6914C29.9424 21.7435 29.9554 21.8021 29.9684 21.8672C29.9815 21.9193 29.988 21.9453 29.988 21.9453C29.988 21.9974 29.9945 22.0951 30.0075 22.2383C30.0205 22.3815 30.0335 22.5378 30.0466 22.707C30.0726 22.8633 30.0921 23.0195 30.1052 23.1758C30.1182 23.319 30.1247 23.4297 30.1247 23.5078L30.1638 23.5859C30.1898 23.638 30.2028 23.6771 30.2028 23.7031C30.2028 24.5104 30.1638 25.3177 30.0856 26.125C30.0075 26.9323 29.9359 27.7461 29.8708 28.5664C29.8708 28.6055 29.8773 28.6771 29.8903 28.7812C29.9033 28.8724 29.9164 28.9766 29.9294 29.0938C29.9424 29.1979 29.9554 29.3021 29.9684 29.4062C29.9815 29.5104 29.988 29.582 29.988 29.6211C30.001 29.7253 30.014 29.901 30.027 30.1484C30.0531 30.3828 30.0726 30.6367 30.0856 30.9102C30.0987 31.1836 30.1052 31.444 30.1052 31.6914C30.1182 31.9258 30.1247 32.0885 30.1247 32.1797C30.1507 32.2188 30.1638 32.3229 30.1638 32.4922C30.1638 32.6484 30.1638 32.8307 30.1638 33.0391C30.1638 33.2344 30.1572 33.4362 30.1442 33.6445C30.1442 33.8529 30.1442 34.0547 30.1442 34.25C30.1442 34.4323 30.1377 34.5951 30.1247 34.7383C30.1247 34.8685 30.1247 34.9531 30.1247 34.9922C30.1377 35.0573 30.1507 35.1484 30.1638 35.2656C30.1898 35.3828 30.2158 35.5 30.2419 35.6172C30.2679 35.7344 30.307 35.8451 30.3591 35.9492C30.4242 36.0404 30.5088 36.1055 30.613 36.1445C30.6651 36.1445 30.7692 36.151 30.9255 36.1641C31.0817 36.1771 31.2445 36.1901 31.4138 36.2031C31.596 36.2031 31.7653 36.2096 31.9216 36.2227C32.0778 36.2357 32.182 36.2422 32.2341 36.2422C32.2862 36.2422 32.3708 36.2552 32.488 36.2812C32.6052 36.3073 32.6768 36.3268 32.7028 36.3398C32.846 36.3398 33.0934 36.3398 33.445 36.3398C33.8096 36.3268 34.2132 36.3203 34.6559 36.3203C35.0726 36.3203 35.4632 36.3268 35.8278 36.3398C36.1924 36.3398 36.4463 36.3398 36.5895 36.3398C36.6026 36.3398 36.6481 36.3464 36.7263 36.3594C36.8174 36.3724 36.9151 36.3919 37.0192 36.418C37.1234 36.431 37.221 36.4505 37.3122 36.4766C37.4164 36.4896 37.4815 36.5026 37.5075 36.5156C38.0674 36.5417 38.6468 36.5938 39.2458 36.6719C39.8578 36.75 40.4567 36.7891 41.0427 36.7891C41.2119 36.7891 41.3421 36.7826 41.4333 36.7695C41.5375 36.7435 41.6807 36.7044 41.863 36.6523C42.1625 36.4961 42.4554 36.3398 42.7419 36.1836C43.0283 36.0143 43.3213 35.8516 43.6208 35.6953C43.6989 35.6042 43.7705 35.5326 43.8356 35.4805C43.9007 35.4284 43.9658 35.3828 44.0309 35.3438C44.096 35.3047 44.1612 35.2591 44.2263 35.207C44.3044 35.1549 44.3955 35.0833 44.4997 34.9922C44.8773 34.6667 45.2093 34.3021 45.4958 33.8984C45.7953 33.4948 46.0817 33.0846 46.3552 32.668C46.6286 32.2383 46.902 31.8151 47.1755 31.3984C47.4489 30.9688 47.7614 30.5781 48.113 30.2266C48.113 30.2005 48.1455 30.1875 48.2106 30.1875H48.2302C48.2302 30.1875 48.2562 30.2005 48.3083 30.2266L48.3474 30.3438C48.3604 30.3698 48.3734 30.3958 48.3864 30.4219C48.3994 30.4479 48.4059 30.474 48.4059 30.5C48.419 30.5391 48.4385 30.6367 48.4645 30.793C48.4906 30.9362 48.5166 31.099 48.5427 31.2812C48.5687 31.4635 48.5947 31.6393 48.6208 31.8086C48.6468 31.9779 48.6664 32.1016 48.6794 32.1797V32.2969V32.4531C48.6794 32.5182 48.6664 32.668 48.6403 32.9023C48.6143 33.1237 48.5817 33.3711 48.5427 33.6445C48.5166 33.918 48.4906 34.1784 48.4645 34.4258C48.4385 34.6602 48.419 34.8164 48.4059 34.8945C48.4059 34.9336 48.3994 35.0378 48.3864 35.207C48.3734 35.3763 48.3604 35.5651 48.3474 35.7734C48.3474 35.9688 48.3408 36.1576 48.3278 36.3398C48.3148 36.5091 48.3083 36.6133 48.3083 36.6523C48.2432 37.069 48.1195 37.401 47.9372 37.6484C47.7549 37.8828 47.475 38 47.0974 38C46.9802 37.974 46.7718 37.9609 46.4724 37.9609C46.1729 37.9609 45.8539 37.9609 45.5153 37.9609C45.1768 37.9609 44.8578 37.9609 44.5583 37.9609C44.2588 37.9609 44.057 37.974 43.9528 38C43.9268 38 43.8747 38 43.7966 38C43.7315 38.013 43.6533 38.026 43.5622 38.0391C43.471 38.0521 43.3864 38.0586 43.3083 38.0586C43.2432 38.0716 43.1976 38.0846 43.1716 38.0977H39.1481C39.057 38.1107 38.8226 38.1237 38.445 38.1367C38.0804 38.1628 37.6898 38.1823 37.2731 38.1953C36.8565 38.2214 36.4593 38.2409 36.0817 38.2539C35.7171 38.2669 35.4893 38.2734 35.3981 38.2734H35.3395H35.2419C35.1638 38.2604 34.9619 38.2409 34.6364 38.2148C34.3239 38.1888 33.9789 38.1562 33.6013 38.1172C33.2367 38.0911 32.8981 38.0651 32.5856 38.0391C32.2731 38.013 32.0778 38 31.9997 38H30.613C30.5869 38 30.5088 37.987 30.3786 37.9609C30.2484 37.9219 30.1638 37.9023 30.1247 37.9023C30.1247 37.9023 30.0921 37.9089 30.027 37.9219C29.975 37.9349 29.9164 37.9479 29.8513 37.9609C29.7862 37.9609 29.721 37.9674 29.6559 37.9805C29.6039 37.9935 29.5713 38 29.5583 38H28.6403C27.6247 38.026 26.6026 38.0781 25.5739 38.1562C24.5583 38.2344 23.5296 38.2734 22.488 38.2734H21.5505C21.5244 38.2734 21.4919 38.2669 21.4528 38.2539C21.4268 38.2409 21.3552 38.1888 21.238 38.0977C21.2119 38.0716 21.1859 38.013 21.1599 37.9219C21.1468 37.8307 21.1403 37.7461 21.1403 37.668C21.1403 37.5247 21.1664 37.401 21.2184 37.2969C21.2835 37.1797 21.3682 37.1081 21.4724 37.082C21.4984 37.069 21.5505 37.043 21.6286 37.0039C21.7067 36.9518 21.7588 36.9128 21.7849 36.8867C22.0453 36.7695 22.3513 36.7109 22.7028 36.7109C23.0674 36.7109 23.432 36.7044 23.7966 36.6914C24.1612 36.6654 24.4997 36.6068 24.8122 36.5156C25.1247 36.4115 25.3656 36.2096 25.5349 35.9102C25.5479 35.8581 25.5609 35.7604 25.5739 35.6172C25.5869 35.4609 25.6 35.3047 25.613 35.1484C25.626 34.9792 25.639 34.8294 25.652 34.6992C25.6651 34.556 25.6716 34.4648 25.6716 34.4258C25.6716 34.3867 25.6455 34.3021 25.5934 34.1719C25.5544 34.0286 25.5349 33.944 25.5349 33.918V32.9023L25.4763 32.4531C25.4632 32.4271 25.4567 32.401 25.4567 32.375C25.4437 32.349 25.4372 32.3229 25.4372 32.2969C25.4372 32.0885 25.4502 31.9128 25.4763 31.7695C25.5153 31.6263 25.5349 31.4635 25.5349 31.2812V30.9688C25.5349 30.9167 25.5218 30.832 25.4958 30.7148C25.4828 30.5977 25.4763 30.526 25.4763 30.5C25.4763 30.4609 25.4828 30.3633 25.4958 30.207C25.5218 30.0508 25.5349 29.9466 25.5349 29.8945V28.5664C25.5349 28.5013 25.5609 28.3841 25.613 28.2148C25.6651 28.0456 25.6846 27.9284 25.6716 27.8633C25.6455 27.7982 25.6195 27.6159 25.5934 27.3164C25.5804 27.0169 25.5609 26.5352 25.5349 25.8711V24.5234C25.5609 23.8594 25.5804 23.3841 25.5934 23.0977C25.6195 22.8112 25.6455 22.6419 25.6716 22.5898V22.4922C25.6716 21.9974 25.6455 21.5026 25.5934 21.0078C25.5544 20.513 25.5349 20.0182 25.5349 19.5234C25.5349 19.4323 25.5283 19.3411 25.5153 19.25C25.5023 19.1589 25.4958 19.0677 25.4958 18.9766C25.4958 18.8594 25.5218 18.6966 25.5739 18.4883C25.639 18.2669 25.6716 18.013 25.6716 17.7266C25.6716 17.401 25.6651 17.069 25.652 16.7305C25.639 16.3789 25.6325 16.0339 25.6325 15.6953C25.6325 15.3958 25.639 15.1029 25.652 14.8164C25.6651 14.5169 25.6716 14.2174 25.6716 13.918C25.6065 13.7747 25.5609 13.6055 25.5349 13.4102C25.5218 13.2148 25.5023 13.026 25.4763 12.8438C25.4632 12.6484 25.4372 12.4727 25.3981 12.3164C25.3721 12.1471 25.307 12.0234 25.2028 11.9453C25.0205 11.8021 24.7536 11.7109 24.402 11.6719C24.0635 11.6198 23.6859 11.5742 23.2692 11.5352C22.9177 11.5091 22.5596 11.4896 22.195 11.4766C21.8434 11.4505 21.5505 11.3854 21.3161 11.2812C21.0036 11.1641 20.8474 10.9232 20.8474 10.5586Z" fill="#6E2525"/>
</svg>
