<svg width="105" height="21" viewBox="0 0 105 21" fill="none" xmlns="http://www.w3.org/2000/svg">
<path d="M10.1981 16.208L8.63013 17.776L0.598125 11.344L8.63013 4.624L10.1981 6.192L3.79813 11.344L10.1981 16.208ZM27.7831 18H16.5831V2.32H19.1431V15.76H25.2231V13.52H27.7831V18ZM41.5494 18H39.3094V16.4L37.7094 18H32.5894C31.9707 18 31.4374 17.7867 30.9894 17.36C30.5627 16.912 30.3494 16.3787 30.3494 15.76V6.8H32.5894V16.08H39.3094V6.8H41.5494V18ZM55.6369 6.8L53.6849 8.72H48.2769V16.08H54.9969V18H48.2769C47.6582 18 47.1249 17.7867 46.6769 17.36C46.2502 16.912 46.0369 16.3787 46.0369 15.76V9.04C46.0369 8.42133 46.2502 7.89867 46.6769 7.472C47.1249 7.024 47.6582 6.8 48.2769 6.8H55.6369ZM68.6006 18H66.3606V16.368L64.4406 18H59.6406C59.022 18 58.4886 17.7867 58.0406 17.36C57.614 16.912 57.4006 16.3787 57.4006 15.76V13.52C57.4006 12.9013 57.614 12.3787 58.0406 11.952C58.4886 11.504 59.022 11.28 59.6406 11.28H66.0406L64.1206 13.168H59.6406V16.08H66.3606V8.72H57.4006L59.3206 6.8H66.3606C66.9793 6.8 67.502 7.024 67.9286 7.472C68.3766 7.89867 68.6006 8.42133 68.6006 9.04V18ZM82.1881 6.8L80.2361 8.72H74.8281V11.28H79.3081C79.9268 11.28 80.4495 11.504 80.8761 11.952C81.3241 12.3787 81.5481 12.9013 81.5481 13.52V15.76C81.5481 16.3787 81.3241 16.912 80.8761 17.36C80.4495 17.7867 79.9268 18 79.3081 18H72.5881V16.08H79.3081V13.2H74.8281C74.2095 13.2 73.6761 12.9867 73.2281 12.56C72.8015 12.112 72.5881 11.5787 72.5881 10.96V9.04C72.5881 8.42133 72.8015 7.89867 73.2281 7.472C73.6761 7.024 74.2095 6.8 74.8281 6.8H82.1881ZM93.8569 0.0799999L85.0249 20.24H82.6569L91.5849 0.0799999H93.8569ZM101.203 11.344L94.8031 6.192L96.3711 4.624L104.403 11.344L96.3711 17.776L94.8031 16.208L101.203 11.344Z" fill="white"/>
</svg>
